<?xml version="1.0" standalone="no"?>
<!DOCTYPE svg PUBLIC "-//W3C//DTD SVG 20010904//EN"
 "http://www.w3.org/TR/2001/REC-SVG-20010904/DTD/svg10.dtd">
<svg version="1.0" xmlns="http://www.w3.org/2000/svg"
 width="1024.000000pt" height="1024.000000pt" viewBox="0 0 1024.000000 1024.000000"
 preserveAspectRatio="xMidYMid meet">
<metadata>
Created by potrace 1.11, written by Peter Selinger 2001-2013
</metadata>
<g transform="translate(0.000000,1024.000000) scale(0.100000,-0.100000)"
fill="#000000" stroke="none">
<path d="M5080 5130 l0 -850 90 0 90 0 0 850 0 850 -90 0 -90 0 0 -850z"/>
<path d="M7208 5889 c-110 -16 -259 -77 -337 -138 l-24 -18 43 -57 c23 -31 46
-56 51 -56 5 0 30 13 57 30 72 44 168 77 261 90 178 24 321 -32 366 -142 25
-63 23 -160 -5 -225 -56 -131 -196 -193 -437 -193 l-103 0 0 -74 0 -73 158 -6
c170 -6 244 -21 325 -64 97 -54 133 -127 125 -261 -10 -180 -126 -273 -358
-289 -140 -9 -329 27 -472 91 -16 7 -18 0 -18 -77 l0 -86 57 -21 c112 -42 190
-53 373 -54 194 -1 254 10 367 64 167 82 254 238 240 430 -7 101 -30 160 -83
219 -52 58 -119 93 -224 119 l-75 19 66 22 c122 40 189 97 238 201 23 48 26
68 26 160 0 93 -3 112 -27 162 -36 78 -98 142 -173 179 -104 51 -269 70 -417
48z"/>
<path d="M8530 5889 c-162 -32 -287 -161 -349 -364 -67 -215 -69 -636 -5 -863
43 -151 140 -289 241 -345 135 -73 321 -76 463 -8 205 99 313 402 297 836 -16
432 -147 673 -404 740 -62 16 -171 18 -243 4z m257 -175 c29 -14 64 -39 79
-57 39 -46 82 -143 99 -223 36 -168 39 -508 5 -686 -43 -229 -144 -333 -320
-331 -81 0 -115 10 -172 50 -113 78 -168 275 -168 608 0 382 59 566 208 644
69 36 187 34 269 -5z"/>
<path d="M1160 5075 l0 -797 313 5 c324 5 368 10 500 56 97 34 168 80 252 165
91 91 140 178 177 312 19 68 22 105 22 264 1 163 -2 195 -22 270 -55 200 -178
357 -342 437 -151 74 -163 76 -552 80 l-348 4 0 -796z m673 616 c107 -28 186
-72 250 -140 109 -114 150 -240 150 -461 1 -165 -14 -245 -65 -350 -42 -88
-142 -187 -229 -228 -110 -53 -173 -64 -396 -69 l-203 -5 0 634 c0 349 3 638
8 642 4 5 97 6 207 3 158 -4 216 -9 278 -26z"/>
<path d="M5880 5720 c-107 -83 -199 -157 -204 -164 -9 -13 14 -49 75 -120 7
-8 256 189 288 228 7 9 16 16 20 16 3 0 5 -315 3 -700 l-3 -700 86 0 85 0 0
795 0 795 -77 0 -78 0 -195 -150z"/>
<path d="M3125 5489 c-207 -35 -361 -195 -410 -427 -19 -93 -19 -285 0 -377
44 -211 197 -367 402 -410 136 -29 334 -14 473 37 l65 23 3 78 c2 47 -1 77 -7
77 -6 0 -32 -9 -59 -19 -141 -56 -359 -71 -467 -32 -140 50 -219 164 -240 349
l-7 62 418 0 417 0 -6 118 c-7 129 -22 197 -62 278 -90 183 -298 281 -520 243z
m230 -170 c89 -42 145 -136 153 -256 l5 -73 -313 0 -313 0 7 51 c20 150 107
260 236 296 60 17 169 8 225 -18z"/>
<path d="M4405 5490 c-220 -29 -374 -174 -432 -406 -24 -96 -24 -334 0 -424
39 -144 123 -268 223 -326 145 -85 403 -98 568 -29 l36 15 0 81 c0 73 -2 80
-17 74 -110 -46 -261 -69 -353 -54 -135 21 -213 89 -262 228 -26 71 -36 277
-19 377 24 143 105 253 214 291 77 27 220 24 316 -5 40 -13 77 -20 81 -15 4 4
17 37 29 72 26 73 26 72 -54 96 -102 30 -219 39 -330 25z"/>
</g>
</svg>
